<svg xmlns="http://www.w3.org/2000/svg" width="19.859" height="17.387" viewBox="0 0 19.859 17.387">
  <g id="Group_1666" data-name="Group 1666" transform="translate(0.707 0.707)">
    <g id="Group_1497" data-name="Group 1497" transform="translate(0)">
      <g id="Group_1496" data-name="Group 1496">
        <path id="Rectangle_2329" data-name="Rectangle 2329" d="M0,0H11.294a0,0,0,0,1,0,0V8.294a3,3,0,0,1-3,3H3a3,3,0,0,1-3-3V0A0,0,0,0,1,0,0Z" transform="translate(7.986 0) rotate(45)" fill="none" stroke="#000" stroke-linecap="round" stroke-linejoin="round" stroke-width="1"/>
        <path id="Path_2041" data-name="Path 2041" d="M486.172,809.314h-6.724a2.52,2.52,0,0,1-2.654-2.723,3.233,3.233,0,0,1,3.189-3.091H484" transform="translate(-476.036 -803.5)" fill="none" stroke="#000" stroke-width="1"/>
      </g>
      <path id="Path_2042" data-name="Path 2042" d="M478.625,810.375a4.32,4.32,0,0,0,2.359,1.087" transform="translate(-477.868 -804.605)" fill="none" stroke="#fff" stroke-width="1"/>
      <g id="Ellipse_8" data-name="Ellipse 8" transform="translate(9.127 4.437)" fill="none" stroke="#000" stroke-width="1">
        <ellipse cx="1.21" cy="1.21" rx="1.21" ry="1.21" stroke="none"/>
        <ellipse cx="1.21" cy="1.21" rx="0.71" ry="0.71" fill="none"/>
      </g>
    </g>
    <g id="Path_2043" data-name="Path 2043" transform="translate(15.277 11.085)" fill="none">
      <path d="M1.8-1.848S3.876,1.407,3.876,2.477A1.938,1.938,0,1,1,0,2.477C0,1.407,1.8-1.848,1.8-1.848Z" stroke="none"/>
      <path d="M 1.861370801925659 0.2143549919128418 C 1.358700752258301 1.269030570983887 1.003081083297729 2.180810928344727 0.9999957084655762 2.477389812469482 C 0.9999957084655762 2.994519710540771 1.420705795288086 3.415229797363281 1.937825798988342 3.415229797363281 C 2.454945802688599 3.415229797363281 2.875655651092529 2.994519710540771 2.875735759735107 2.481889724731445 C 2.860593795776367 2.17581844329834 2.441938877105713 1.26108705997467 1.861370801925659 0.2143549919128418 M 1.796525716781616 -1.848450183868408 C 1.796525716781616 -1.848450183868408 3.875655889511108 1.407149791717529 3.875655889511108 2.477389812469482 C 3.875655889511108 3.547629833221436 3.008055686950684 4.415229797363281 1.937825798988342 4.415229797363281 C 0.867595911026001 4.415229797363281 -4.291534423828125e-06 3.547629833221436 -4.291534423828125e-06 2.477389812469482 C -4.291534423828125e-06 1.407149791717529 1.796525716781616 -1.848450183868408 1.796525716781616 -1.848450183868408 Z" stroke="none" fill="#000"/>
    </g>
  </g>
</svg>
