<svg xmlns="http://www.w3.org/2000/svg" width="12" height="14" viewBox="0 0 12 14">
  <g id="trash-sm" transform="translate(-1)">
    <path id="Path_324" data-name="Path 324" d="M12.5,2H10V1.6A1.6,1.6,0,0,0,8.4,0H5.6A1.6,1.6,0,0,0,4,1.6V2H1.5a.5.5,0,0,0,0,1H2v9.2A1.8,1.8,0,0,0,3.8,14h6.4A1.8,1.8,0,0,0,12,12.2V3h.5a.5.5,0,0,0,0-1ZM5,1.6A.6.6,0,0,1,5.6,1H8.4a.6.6,0,0,1,.6.6V2H5Zm6,10.6a.8.8,0,0,1-.8.8H3.8a.8.8,0,0,1-.8-.8V3h8Z"/>
    <path id="Path_325" data-name="Path 325" d="M5.5,5a.5.5,0,0,0-.5.5v5a.5.5,0,0,0,1,0v-5A.5.5,0,0,0,5.5,5Z"/>
    <path id="Path_326" data-name="Path 326" d="M8.5,5a.5.5,0,0,0-.5.5v5a.5.5,0,0,0,1,0v-5A.5.5,0,0,0,8.5,5Z"/>
  </g>
</svg>
