<svg xmlns="http://www.w3.org/2000/svg" width="35" height="35" fill="#000" xmlns:v="https://vecta.io/nano"><path d="M16.231 13.333h2.324v12.115h-2.324V13.333zm13.392-7.6h-7.08v-.635A3.1 3.1 0 0 0 19.445 2H15.34a3.1 3.1 0 0 0-3.098 3.098v.635h-7.08a1.16 1.16 0 1 0 0 2.324h1.669V26.98c0 1.335.53 2.616 1.474 3.56s2.225 1.475 3.56 1.475h11.053c1.335 0 2.616-.531 3.56-1.475s1.475-2.225 1.475-3.56V8.057h1.669a1.16 1.16 0 0 0 1.006-1.743c-.208-.359-.591-.581-1.006-.581h0zm-15.058-.635c0-.428.347-.775.774-.775h4.105c.206 0 .402.082.548.227a.77.77 0 0 1 .227.548v.635h-5.654v-.635zM25.63 26.98a2.71 2.71 0 0 1-2.711 2.711H11.866a2.71 2.71 0 0 1-2.711-2.711V8.058H25.63V26.98zM11.583 13.333h2.324v12.115h-2.324V13.333zm9.295 0h2.324v12.115h-2.324V13.333z"/></svg>