<svg width="37" height="37" viewBox="0 0 37 37" fill="none" xmlns="http://www.w3.org/2000/svg">
<rect width="5.55" height="7.4" transform="matrix(0 -1 -1 0 20.3828 10.7852)" fill="#767676"/>
<rect width="5.55" height="9.25" transform="matrix(0 -1 -1 0 11.8711 10.7852)" fill="#767676"/>
<rect width="6.16667" height="25.4889" transform="matrix(0 -1 -1 0 33 16.9531)" fill="#A2A3A5"/>
<rect width="6.16667" height="3.7" transform="matrix(0 -1 -1 0 6.27734 16.9531)" fill="#A2A3A5"/>
<rect width="5.75556" height="7.81111" transform="matrix(0 -1 -1 0 16.5586 32)" fill="#A2A3A5"/>
<rect width="5.75556" height="5.34444" transform="matrix(0 -1 -1 0 7.91797 32)" fill="#A2A3A5"/>
<rect width="6.29" height="11.47" transform="matrix(0 -1 -1 0 14.0898 26.2422)" fill="#767676"/>
<rect width="6.29" height="9.62" transform="matrix(0 -1 -1 0 24.8203 26.2422)" fill="#767676"/>
</svg>
