<svg width="32" height="32" viewBox="0 0 32 32" fill="none" xmlns="http://www.w3.org/2000/svg">
<rect width="4.97778" height="6.75556" transform="matrix(0 -1 -1 0 14.9336 29.1523)" fill="#A2A3A5"/>
<rect width="4.97778" height="4.62222" transform="matrix(0 -1 -1 0 7.46094 29.1523)" fill="#A2A3A5"/>
<rect width="5.33333" height="22.0444" transform="matrix(0 -1 -1 0 29.1523 15.2852)" fill="#A2A3A5"/>
<rect width="4.97778" height="7.82222" transform="matrix(0 -1 -1 0 17.7773 7.82031)" fill="#767676"/>
<rect width="4.97778" height="6.04444" transform="matrix(0 -1 -1 0 8.88672 7.82031)" fill="#767676"/>
<rect width="5.33333" height="3.2" transform="matrix(0 -1 -1 0 6.04297 15.2852)" fill="#A2A3A5"/>
<rect width="5.33333" height="10.6667" transform="matrix(0 -1 -1 0 13.5039 22.043)" fill="#767676"/>
<rect width="5.33333" height="7.46667" transform="matrix(0 -1 -1 0 22.043 22.043)" fill="#767676"/>
</svg>
