<svg xmlns="http://www.w3.org/2000/svg" width="35" height="35" fill="none" xmlns:v="https://vecta.io/nano"><path stroke="#000" stroke-width=".92" stroke-dasharray="2.76 2.76" d="M6.972 6.971h20.243v20.243H6.972z"/><g fill="#000"><path d="M12.209 12.209h9.767v9.767h-9.767z"/><path d="M28.676 28.298h0l3.74-.672c.02-.013.022-.017.022-.021-.005-.018-.009-.023-.015-.026l-7.871-4.022c-.006-.003-.013-.004-.02-.003-.022.01-.025.014-.027.018l2.108 8.507c.014.018.021.021.029.022s.015-.001.021-.004l.212.372-.212-.372 1.553-3.44h0c.042-.093.106-.174.186-.236l.273-.122zm0 0c-.099.018-.193.059-.273.122l.273-.122z" stroke="#000" stroke-width=".854"/></g></svg>