<svg xmlns="http://www.w3.org/2000/svg" width="35" height="35" fill="none" stroke="#000" xmlns:v="https://vecta.io/nano"><path d="M29.833 29.407h0c-.095.017-.185.056-.262.115s-.139.137-.18.226h0l-1.537 3.377c-.003.006-.009.013-.018.018s-.023.009-.037.007-.026-.007-.036-.015-.013-.015-.015-.022l-2.123-8.379c.003-.024.008-.03.015-.036s.018-.01.031-.012.024.001.035.006l7.878 3.979c.011.006.018.014.022.022s.005.015.004.021-.004.013-.01.02l.289.283-.289-.283c-.006.006-.016.012-.028.015l-3.739.656z" fill="#000" stroke-width=".807"/><path stroke-width="1.525" d="M6.731 6.731h21.162v21.162H6.731z"/><path stroke-width="1.4" stroke-dasharray="1.69 1.69" d="M10.727 10.727H23.69v12.964H10.727z"/></svg>